<?xml version="1.0" standalone="no"?>
<!DOCTYPE svg PUBLIC "-//W3C//DTD SVG 20010904//EN"
 "http://www.w3.org/TR/2001/REC-SVG-20010904/DTD/svg10.dtd">
<svg version="1.0" xmlns="http://www.w3.org/2000/svg"
 width="767.000000pt" height="160.000000pt" viewBox="0 0 767.000000 160.000000"
 preserveAspectRatio="xMidYMid meet">

<g transform="translate(0.000000,160.000000) scale(0.100000,-0.100000)"
fill="#000000" stroke="none">
<path d="M500 1473 c-118 -68 -275 -156 -348 -195 l-132 -72 0 -402 0 -403
336 -191 c184 -106 343 -194 352 -197 14 -3 254 128 612 334 l85 49 3 405 2
404 -62 34 c-35 19 -189 106 -343 194 -154 88 -282 160 -285 162 -3 1 -102
-54 -220 -122z m480 -84 l180 -103 0 -79 c0 -64 -3 -78 -14 -74 -8 3 -105 58
-216 121 -111 64 -205 116 -209 116 -4 0 -77 -40 -162 -88 l-156 -88 -54 42
c-30 23 -54 47 -54 53 0 6 94 65 210 130 l210 120 42 -24 c24 -13 124 -70 223
-126z m-35 -201 l215 -123 0 -228 c0 -214 -1 -227 -17 -218 -49 28 -678 529
-678 540 0 13 230 150 253 151 7 0 109 -55 227 -122z m-223 -307 c262 -204
479 -371 482 -371 3 0 7 168 8 374 l3 375 73 -42 72 -41 0 -376 -1 -375 -84
-48 -85 -48 -482 376 -483 377 -3 -366 c-1 -201 -5 -366 -8 -366 -3 0 -37 18
-75 40 l-69 41 0 372 0 373 77 46 c43 25 83 42 88 38 6 -4 225 -174 487 -379z
m-364 34 l52 -39 0 -236 0 -236 154 -87 153 -88 124 72 c195 112 169 105 231
57 29 -22 57 -44 61 -48 5 -4 -87 -62 -203 -129 l-212 -121 -224 127 -224 128
0 333 c0 317 1 333 18 320 10 -7 41 -31 70 -53z m371 -290 c220 -172 241 -190
224 -203 -26 -19 -228 -132 -236 -132 -4 0 -63 32 -132 71 l-125 71 0 200 c0
164 2 198 13 191 8 -4 123 -93 256 -198z"/>
<path d="M1800 826 l0 -226 45 0 45 0 0 142 0 143 86 -143 87 -142 49 0 48 0
-2 223 -3 222 -42 3 -42 3 -3 -143 -3 -143 -86 140 -86 140 -46 3 -47 3 0
-225z"/>
<path d="M2237 1043 c-4 -3 -7 -105 -7 -225 l0 -218 45 0 45 0 0 100 0 100 75
0 75 0 0 40 0 40 -75 0 -75 0 0 40 0 40 90 0 90 0 0 45 0 45 -128 0 c-71 0
-132 -3 -135 -7z"/>
<path d="M2537 1043 c-4 -3 -7 -24 -7 -45 l0 -38 65 0 65 0 0 -180 0 -180 45
0 45 0 0 180 0 180 65 0 65 0 0 45 0 45 -168 0 c-93 0 -172 -3 -175 -7z"/>
<path d="M3220 1034 c-50 -22 -79 -52 -106 -109 -81 -172 69 -373 243 -326 40
11 123 64 123 79 0 4 -15 16 -34 26 -34 18 -35 18 -69 -3 -41 -25 -87 -27
-128 -6 -96 50 -92 220 6 261 48 20 77 18 117 -10 35 -23 35 -23 71 -5 45 23
41 38 -21 79 -38 25 -55 30 -106 30 -34 -1 -77 -8 -96 -16z"/>
<path d="M3654 1031 c-125 -57 -164 -232 -77 -349 67 -90 182 -114 276 -59 93
55 135 164 103 269 -18 61 -44 95 -100 132 -49 33 -139 36 -202 7z m154 -81
c68 -42 91 -125 53 -198 -66 -128 -241 -75 -241 73 0 112 100 179 188 125z"/>
<path d="M4030 825 l0 -225 40 0 39 0 3 143 3 142 86 -140 86 -140 46 -3 47
-3 0 225 0 226 -40 0 -40 0 0 -140 c0 -77 -3 -140 -7 -140 -5 1 -46 64 -91
140 l-84 140 -44 0 -44 0 0 -225z"/>
<path d="M4535 1035 c-47 -26 -64 -45 -75 -86 -22 -81 28 -138 143 -164 79
-18 97 -28 97 -56 0 -46 -96 -66 -143 -29 -23 18 -27 19 -61 5 -20 -8 -36 -20
-36 -26 0 -22 65 -68 112 -80 118 -28 228 45 215 142 -9 66 -66 110 -160 124
-85 13 -114 65 -51 93 36 17 64 15 108 -8 35 -17 42 -18 73 -5 29 12 33 17 24
34 -6 11 -26 30 -43 43 -43 30 -157 37 -203 13z"/>
<path d="M4840 1005 l0 -45 65 0 65 0 0 -180 0 -180 45 0 45 0 0 180 0 180 66
0 65 0 -3 43 -3 42 -172 3 -173 2 0 -45z"/>
<path d="M5257 1043 c-4 -3 -7 -105 -7 -225 l0 -218 45 0 45 0 0 90 c0 83 2
90 20 90 14 0 34 -25 72 -90 l52 -90 48 0 c56 0 57 -9 -15 113 l-39 67 27 22
c56 44 70 123 32 179 -35 53 -77 69 -183 69 -50 0 -94 -3 -97 -7z m201 -85 c7
-7 12 -24 12 -39 0 -37 -33 -59 -87 -59 l-43 0 0 55 0 55 53 0 c29 0 58 -5 65
-12z"/>
<path d="M5650 904 c0 -167 9 -210 57 -259 78 -80 204 -67 271 29 26 38 27 43
30 208 l4 169 -44 -3 -43 -3 -5 -157 c-5 -148 -6 -158 -29 -182 -32 -34 -80
-35 -118 -2 l-28 24 -5 159 -5 158 -42 3 -43 3 0 -147z"/>
<path d="M6205 1034 c-81 -42 -125 -115 -125 -209 0 -199 213 -306 352 -176
l40 37 -41 19 c-40 18 -42 18 -62 -1 -15 -14 -36 -19 -74 -19 -46 0 -58 4 -85
30 -75 72 -60 194 30 240 41 21 82 19 121 -8 l34 -23 38 22 38 21 -37 32 c-20
18 -47 37 -61 42 -38 14 -135 11 -168 -7z"/>
<path d="M6520 1005 l0 -45 65 0 65 0 0 -180 0 -180 45 0 45 0 0 180 0 180 65
0 65 0 0 45 0 45 -175 0 -175 0 0 -45z"/>
<path d="M6940 825 l0 -225 140 0 140 0 0 45 0 45 -100 0 -100 0 0 55 0 55 75
0 75 0 0 40 0 40 -75 0 -75 0 0 40 0 40 100 0 100 0 0 45 0 45 -140 0 -140 0
0 -225z"/>
<path d="M7290 825 l0 -225 45 0 45 0 0 90 c0 81 2 90 19 90 13 0 34 -27 70
-90 l52 -90 51 0 c50 0 50 0 36 23 -8 12 -31 52 -52 89 l-37 67 34 35 c73 73
49 189 -46 225 -16 6 -71 11 -123 11 l-94 0 0 -225z m204 129 c41 -40 1 -94
-69 -94 l-45 0 0 55 0 55 49 0 c32 0 55 -6 65 -16z"/>
</g>
</svg>
