<svg width="226" height="27" viewBox="0 0 226 27" fill="none" xmlns="http://www.w3.org/2000/svg">
<path d="M46.4629 21H42.6152L36.4043 10.1992H36.3164C36.4401 12.1068 36.502 13.4674 36.502 14.2812V21H33.7969V6.72266H37.6152L43.8164 17.416H43.8848C43.7871 15.5605 43.7383 14.2487 43.7383 13.4805V6.72266H46.4629V21ZM53.0449 21H50.0664V6.72266H58.25V9.20312H53.0449V12.8848H57.8887V15.3555H53.0449V21ZM66.5508 21H63.5234V9.24219H59.6465V6.72266H70.4277V9.24219H66.5508V21ZM83.8848 9.03711C82.7454 9.03711 81.8633 9.4668 81.2383 10.3262C80.6133 11.179 80.3008 12.3704 80.3008 13.9004C80.3008 17.084 81.4954 18.6758 83.8848 18.6758C84.8874 18.6758 86.1016 18.4251 87.5273 17.9238V20.4629C86.3555 20.9512 85.0469 21.1953 83.6016 21.1953C81.5247 21.1953 79.9362 20.5671 78.8359 19.3105C77.7357 18.0475 77.1855 16.2376 77.1855 13.8809C77.1855 12.3965 77.4557 11.0977 77.9961 9.98438C78.5365 8.86458 79.3112 8.00846 80.3203 7.41602C81.3359 6.81706 82.5241 6.51758 83.8848 6.51758C85.2715 6.51758 86.6647 6.85286 88.0645 7.52344L87.0879 9.98438C86.554 9.73047 86.0169 9.50911 85.4766 9.32031C84.9362 9.13151 84.4056 9.03711 83.8848 9.03711ZM103.533 13.8418C103.533 16.2051 102.947 18.0215 101.775 19.291C100.604 20.5605 98.9238 21.1953 96.7363 21.1953C94.5488 21.1953 92.8691 20.5605 91.6973 19.291C90.5254 18.0215 89.9395 16.1986 89.9395 13.8223C89.9395 11.446 90.5254 9.63281 91.6973 8.38281C92.8757 7.1263 94.5618 6.49805 96.7559 6.49805C98.9499 6.49805 100.626 7.12956 101.785 8.39258C102.951 9.6556 103.533 11.472 103.533 13.8418ZM93.1133 13.8418C93.1133 15.4368 93.416 16.638 94.0215 17.4453C94.627 18.2526 95.5319 18.6562 96.7363 18.6562C99.1517 18.6562 100.359 17.0514 100.359 13.8418C100.359 10.6257 99.1582 9.01758 96.7559 9.01758C95.5514 9.01758 94.6432 9.42448 94.0312 10.2383C93.4193 11.0456 93.1133 12.2467 93.1133 13.8418ZM119.158 21H115.311L109.1 10.1992H109.012C109.135 12.1068 109.197 13.4674 109.197 14.2812V21H106.492V6.72266H110.311L116.512 17.416H116.58C116.482 15.5605 116.434 14.2487 116.434 13.4805V6.72266H119.158V21ZM131.189 17.0352C131.189 18.3242 130.724 19.3398 129.793 20.082C128.868 20.8242 127.579 21.1953 125.926 21.1953C124.402 21.1953 123.055 20.9089 121.883 20.3359V17.5234C122.846 17.9531 123.66 18.2559 124.324 18.4316C124.995 18.6074 125.607 18.6953 126.16 18.6953C126.824 18.6953 127.332 18.5684 127.684 18.3145C128.042 18.0605 128.221 17.6829 128.221 17.1816C128.221 16.9017 128.143 16.6543 127.986 16.4395C127.83 16.2181 127.599 16.0065 127.293 15.8047C126.993 15.6029 126.378 15.2806 125.447 14.8379C124.575 14.4277 123.921 14.0339 123.484 13.6562C123.048 13.2786 122.7 12.8392 122.439 12.3379C122.179 11.8366 122.049 11.2507 122.049 10.5801C122.049 9.31706 122.475 8.32422 123.328 7.60156C124.188 6.87891 125.372 6.51758 126.883 6.51758C127.625 6.51758 128.331 6.60547 129.002 6.78125C129.679 6.95703 130.385 7.20443 131.121 7.52344L130.145 9.87695C129.383 9.56445 128.751 9.34635 128.25 9.22266C127.755 9.09896 127.267 9.03711 126.785 9.03711C126.212 9.03711 125.773 9.17057 125.467 9.4375C125.161 9.70443 125.008 10.0527 125.008 10.4824C125.008 10.7493 125.07 10.9837 125.193 11.1855C125.317 11.3809 125.512 11.5729 125.779 11.7617C126.053 11.944 126.694 12.276 127.703 12.7578C129.038 13.3958 129.952 14.0371 130.447 14.6816C130.942 15.3197 131.189 16.1042 131.189 17.0352ZM139.285 21H136.258V9.24219H132.381V6.72266H143.162V9.24219H139.285V21ZM148.387 13.0605H149.363C150.32 13.0605 151.027 12.901 151.482 12.582C151.938 12.263 152.166 11.7617 152.166 11.0781C152.166 10.401 151.932 9.91927 151.463 9.63281C151.001 9.34635 150.281 9.20312 149.305 9.20312H148.387V13.0605ZM148.387 15.5215V21H145.359V6.72266H149.52C151.46 6.72266 152.895 7.07747 153.826 7.78711C154.757 8.49023 155.223 9.5612 155.223 11C155.223 11.8398 154.992 12.5885 154.529 13.2461C154.067 13.8971 153.413 14.4082 152.566 14.7793C154.715 17.9889 156.115 20.0625 156.766 21H153.406L149.998 15.5215H148.387ZM170.184 6.72266V15.9609C170.184 17.0156 169.946 17.9401 169.471 18.7344C169.002 19.5286 168.322 20.1374 167.43 20.5605C166.538 20.9837 165.483 21.1953 164.266 21.1953C162.43 21.1953 161.004 20.7266 159.988 19.7891C158.973 18.8451 158.465 17.556 158.465 15.9219V6.72266H161.482V15.4629C161.482 16.5632 161.704 17.3704 162.146 17.8848C162.589 18.3991 163.322 18.6562 164.344 18.6562C165.333 18.6562 166.049 18.3991 166.492 17.8848C166.941 17.3639 167.166 16.5501 167.166 15.4434V6.72266H170.184ZM179.744 9.03711C178.605 9.03711 177.723 9.4668 177.098 10.3262C176.473 11.179 176.16 12.3704 176.16 13.9004C176.16 17.084 177.355 18.6758 179.744 18.6758C180.747 18.6758 181.961 18.4251 183.387 17.9238V20.4629C182.215 20.9512 180.906 21.1953 179.461 21.1953C177.384 21.1953 175.796 20.5671 174.695 19.3105C173.595 18.0475 173.045 16.2376 173.045 13.8809C173.045 12.3965 173.315 11.0977 173.855 9.98438C174.396 8.86458 175.171 8.00846 176.18 7.41602C177.195 6.81706 178.383 6.51758 179.744 6.51758C181.131 6.51758 182.524 6.85286 183.924 7.52344L182.947 9.98438C182.413 9.73047 181.876 9.50911 181.336 9.32031C180.796 9.13151 180.265 9.03711 179.744 9.03711ZM191.941 21H188.914V9.24219H185.037V6.72266H195.818V9.24219H191.941V21ZM210.975 13.8418C210.975 16.2051 210.389 18.0215 209.217 19.291C208.045 20.5605 206.365 21.1953 204.178 21.1953C201.99 21.1953 200.311 20.5605 199.139 19.291C197.967 18.0215 197.381 16.1986 197.381 13.8223C197.381 11.446 197.967 9.63281 199.139 8.38281C200.317 7.1263 202.003 6.49805 204.197 6.49805C206.391 6.49805 208.068 7.12956 209.227 8.39258C210.392 9.6556 210.975 11.472 210.975 13.8418ZM200.555 13.8418C200.555 15.4368 200.857 16.638 201.463 17.4453C202.068 18.2526 202.973 18.6562 204.178 18.6562C206.593 18.6562 207.801 17.0514 207.801 13.8418C207.801 10.6257 206.6 9.01758 204.197 9.01758C202.993 9.01758 202.085 9.42448 201.473 10.2383C200.861 11.0456 200.555 12.2467 200.555 13.8418ZM216.961 13.0605H217.938C218.895 13.0605 219.601 12.901 220.057 12.582C220.512 12.263 220.74 11.7617 220.74 11.0781C220.74 10.401 220.506 9.91927 220.037 9.63281C219.575 9.34635 218.855 9.20312 217.879 9.20312H216.961V13.0605ZM216.961 15.5215V21H213.934V6.72266H218.094C220.034 6.72266 221.469 7.07747 222.4 7.78711C223.331 8.49023 223.797 9.5612 223.797 11C223.797 11.8398 223.566 12.5885 223.104 13.2461C222.641 13.8971 221.987 14.4082 221.141 14.7793C223.289 17.9889 224.689 20.0625 225.34 21H221.98L218.572 15.5215H216.961Z" fill="#323232"/>
<rect y="2" width="24" height="24" fill="#6C54EA"/>
<rect x="5" y="7" width="6" height="6" fill="white"/>
<rect x="5" y="15" width="6" height="6" fill="white"/>
<rect x="13" y="7" width="6" height="6" fill="white"/>
<rect x="13" y="15" width="6" height="6" fill="white"/>
</svg>
